<svg width="32" height="32" viewBox="0 0 32 32" fill="none" xmlns="http://www.w3.org/2000/svg">
<path d="M12.0132 21.0532L20.3147 22.2473L21.0546 13.8932C21.0737 13.8078 21.0744 13.7182 21.0563 13.6304C21.0383 13.5426 21.0021 13.4586 20.9501 13.3842C20.8981 13.3098 20.8316 13.2467 20.7551 13.1991C20.6785 13.1515 20.5937 13.1206 20.5064 13.1085C20.4191 13.0963 20.3313 13.1032 20.249 13.1287C20.1667 13.1541 20.0918 13.1976 20.0293 13.256C19.9669 13.3145 19.9184 13.3867 19.8871 13.4676C19.8558 13.5485 19.8424 13.6364 19.8479 13.7252L19.2837 19.9839L11.7576 10.4803C11.6533 10.3486 11.5039 10.2613 11.3423 10.2376C11.1808 10.2139 11.0203 10.2559 10.8962 10.3541C10.7721 10.4524 10.6945 10.599 10.6805 10.7617C10.6665 10.9244 10.7173 11.0898 10.8216 11.2215L18.3478 20.7251L12.1262 19.8401C11.9646 19.817 11.8042 19.8595 11.6804 19.9583C11.5565 20.0571 11.4794 20.2041 11.466 20.367C11.4526 20.5298 11.504 20.6952 11.6088 20.8266C11.7136 20.9581 11.8634 21.045 12.025 21.0681L12.0132 21.0532Z" fill="#F6F6F6"/>
</svg>
