<svg width="283" height="552" viewBox="0 0 283 552" fill="none" xmlns="http://www.w3.org/2000/svg">
<path d="M560.816 164.81L530.287 111.867C526.201 104.846 519.521 99.7212 511.693 97.6019C503.864 95.4826 495.518 96.5396 488.462 100.544L368.788 170.013V31.0755C368.788 14.2439 355.05 0.472534 338.259 0.472534H277.2C260.409 0.472534 246.671 14.2439 246.671 31.0755V170.013L126.691 100.544C123.245 98.5275 119.436 97.2126 115.482 96.6749C111.528 96.1373 107.507 96.3874 103.65 97.4109C99.7922 98.4345 96.1743 100.211 93.0034 102.64C89.8326 105.068 87.1711 108.1 85.1717 111.561L54.6426 164.504C46.0944 179.194 50.9791 198.168 65.6331 206.43L185.613 275.899L65.6331 345.368C50.9791 353.937 46.0944 372.604 54.3373 387.294L84.8664 440.237C93.4146 454.926 112.037 459.823 126.691 451.56L246.671 381.785V520.723C246.671 537.554 260.409 551.326 277.2 551.326H338.259C355.05 551.326 368.788 537.554 368.788 520.723V381.785L488.767 451.254C503.421 459.823 522.044 454.62 530.592 439.931L561.121 386.988C569.67 372.298 564.48 353.63 549.826 345.062L429.846 275.899L549.826 206.43C564.48 198.168 569.364 179.194 560.816 164.81Z" fill="#FF7219"/>
<path d="M511.472 168.684L480.942 117.885C476.857 111.148 470.176 106.23 462.348 104.197C454.52 102.163 446.174 103.178 439.117 107.02L319.443 173.676V40.364C319.443 24.2138 305.705 11 288.914 11H227.856C211.064 11 197.326 24.2138 197.326 40.364V173.676L77.3467 107.02C73.9007 105.085 70.0914 103.823 66.1374 103.308C62.1833 102.792 58.1623 103.032 54.3049 104.014C50.4474 104.996 46.8295 106.701 43.6587 109.031C40.4878 111.361 37.8264 114.27 35.827 117.591L5.29785 168.391C-3.25032 182.485 1.63435 200.691 16.2884 208.619L136.268 275.276L16.2884 341.932C1.63435 350.154 -3.25032 368.066 4.99255 382.16L35.5217 432.96C44.0699 447.055 62.6927 451.753 77.3467 443.825L197.326 376.875V510.187C197.326 526.337 211.064 539.551 227.856 539.551H288.914C305.705 539.551 319.443 526.337 319.443 510.187V376.875L439.423 443.531C454.077 451.753 472.699 446.761 481.248 432.666L511.777 381.867C520.325 367.772 515.135 349.86 500.481 341.638L380.501 275.276L500.481 208.619C515.135 200.691 520.02 182.486 511.472 168.684Z" stroke="#F6F6F6" stroke-width="2"/>
</svg>
