<svg width="110" height="118" viewBox="0 0 110 118" fill="none" xmlns="http://www.w3.org/2000/svg">
<path d="M11 33.7143H88V22.4762H11V33.7143ZM11 112.381C7.975 112.381 5.38633 111.281 3.234 109.083C1.08167 106.884 0.00366667 104.237 0 101.143V22.4762C0 19.3857 1.078 16.741 3.234 14.5421C5.39 12.3432 7.97866 11.2418 11 11.2381H16.5V0H27.5V11.2381H71.5V0H82.5V11.2381H88C91.025 11.2381 93.6155 12.3394 95.7715 14.5421C97.9275 16.7448 99.0036 19.3895 99 22.4762V54.3643C97.2583 53.5214 95.4708 52.819 93.6375 52.2571C91.8041 51.6952 89.925 51.2738 88 50.9929V44.9524H11V101.143H45.65C46.2917 103.203 47.0488 105.17 47.9215 107.043C48.7942 108.916 49.8245 110.695 51.0125 112.381H11ZM82.5 118C74.8916 118 68.4071 115.26 63.0465 109.779C57.6858 104.299 55.0037 97.674 55 89.9048C54.9963 82.1355 57.6785 75.5106 63.0465 70.0302C68.4145 64.5497 74.899 61.8095 82.5 61.8095C90.101 61.8095 96.5873 64.5497 101.959 70.0302C107.331 75.5106 110.011 82.1355 110 89.9048C109.989 97.674 107.307 104.301 101.953 109.785C96.6001 115.269 90.1156 118.007 82.5 118ZM91.7125 103.25L95.5625 99.3167L85.25 88.7809V73.0476H79.75V91.0286L91.7125 103.25Z" fill="black"/>
</svg>
