<svg width="105" height="118" viewBox="0 0 105 118" fill="none" xmlns="http://www.w3.org/2000/svg">
<path d="M23.3333 59H35V70.8H23.3333V59ZM105 23.6V106.2C105 112.749 99.8083 118 93.3333 118H11.6667C8.57247 118 5.60501 116.757 3.41709 114.544C1.22916 112.331 0 109.33 0 106.2V23.6C0 17.11 5.25 11.8 11.6667 11.8H17.5V0H29.1667V11.8H75.8333V0H87.5V11.8H93.3333C96.4275 11.8 99.395 13.0432 101.583 15.2561C103.771 17.4691 105 20.4704 105 23.6ZM11.6667 35.4H93.3333V23.6H11.6667V35.4ZM93.3333 106.2V47.2H11.6667V106.2H93.3333ZM70 70.8V59H81.6667V70.8H70ZM46.6667 70.8V59H58.3333V70.8H46.6667ZM23.3333 82.6H35V94.4H23.3333V82.6ZM70 94.4V82.6H81.6667V94.4H70ZM46.6667 94.4V82.6H58.3333V94.4H46.6667Z" fill="black"/>
</svg>
