<svg width="106" height="118" viewBox="0 0 106 118" fill="none" xmlns="http://www.w3.org/2000/svg">
<path d="M93.8333 11.8H88V0H76.3333V11.8H29.6667V0H18V11.8H12.1667C5.75 11.8 0.5 17.11 0.5 23.6V106.2C0.5 109.33 1.72916 112.331 3.91709 114.544C6.10501 116.757 9.07247 118 12.1667 118H93.8333C100.308 118 105.5 112.749 105.5 106.2V23.6C105.5 20.4704 104.271 17.4691 102.083 15.2561C99.895 13.0432 96.9275 11.8 93.8333 11.8ZM93.8333 106.2H12.1667V47.2H93.8333V106.2ZM12.1667 35.4V23.6H93.8333V35.4H12.1667ZM44.6 97.114L79.25 62.127L73.0083 55.873L44.6 84.606L32.2917 72.157L26.1083 78.411L44.6 97.114Z" fill="black"/>
</svg>
