<svg width="67" height="62" viewBox="0 0 67 62" fill="none" xmlns="http://www.w3.org/2000/svg">
<ellipse cx="24.9945" cy="43.0288" rx="18.8571" ry="18.5614" fill="#9DF49B"/>
<ellipse cx="40.4231" cy="25.311" rx="25.7143" ry="25.311" fill="#9DF49B"/>
<path d="M37.3517 43.0288C37.3517 52.9964 29.1404 61.0902 18.9946 61.0902C8.84874 61.0902 0.637451 52.9964 0.637451 43.0288C0.637451 33.0611 8.84874 24.9673 18.9946 24.9673C29.1404 24.9673 37.3517 33.0611 37.3517 43.0288Z" stroke="#00071C"/>
<path d="M59.6374 25.311C59.6374 39.0063 48.356 50.122 34.4231 50.122C20.4901 50.122 9.2088 39.0063 9.2088 25.311C9.2088 11.6157 20.4901 0.5 34.4231 0.5C48.356 0.5 59.6374 11.6157 59.6374 25.311Z" stroke="#00071C"/>
</svg>
