<svg width="51" height="50" viewBox="0 0 51 50" fill="none" xmlns="http://www.w3.org/2000/svg">
<path d="M29.6665 4.16675H21.3332C14.4998 4.16675 11.0853 4.16675 8.66442 5.86258C7.76867 6.48981 6.98957 7.26892 6.36234 8.16466C4.6665 10.5834 4.6665 14.0001 4.6665 20.8334C4.6665 27.6667 4.6665 31.0813 6.36234 33.5022C6.98957 34.3979 7.76867 35.177 8.66442 35.8042C11.0832 37.5001 14.4998 37.5001 21.3332 37.5001H29.6665C36.4998 37.5001 39.9144 37.5001 42.3353 35.8042C43.231 35.177 44.0101 34.3979 44.6373 33.5022C46.3332 31.0834 46.3332 27.6667 46.3332 20.8334C46.3332 14.0001 46.3332 10.5855 44.6373 8.16466C44.0101 7.26892 43.231 6.48981 42.3353 5.86258C39.9165 4.16675 36.4998 4.16675 29.6665 4.16675Z" stroke="white" stroke-width="2" stroke-linecap="round" stroke-linejoin="round"/>
<path d="M33.8333 16.6668L36.3896 18.8689C37.4625 19.796 38 20.2585 38 20.8335C38 21.4085 37.4625 21.871 36.3896 22.7981L33.8333 25.0002M17.1667 16.6668L14.6104 18.8689C13.5375 19.796 13 20.2585 13 20.8335C13 21.4085 13.5375 21.871 14.6104 22.7981L17.1667 25.0002M27.5833 14.5835L23.4167 27.0835M31.0333 45.8335L30.1583 44.9606C29.1989 44.0015 28.5659 42.7647 28.349 41.4256C28.1321 40.0865 28.3424 38.713 28.95 37.5002M19.25 45.8335L20.125 44.9606C21.0844 44.0015 21.7175 42.7647 21.9344 41.4256C22.1513 40.0865 21.941 38.713 21.3333 37.5002M15.0833 45.8335H35.9167" stroke="white" stroke-width="2" stroke-linecap="round" stroke-linejoin="round"/>
</svg>
