<svg width="229" height="229" viewBox="0 0 229 229" fill="none" xmlns="http://www.w3.org/2000/svg">
<g filter="url(#filter0_d_1870_1594)">
<path d="M222.717 94.0768C191.219 78.6441 125.301 38.1398 93.8763 18.303C92.861 17.6621 91.5389 18.0686 91.0245 19.1536L22.5282 163.648C22.176 164.391 22.3143 165.273 22.8769 165.873L66.725 212.606C66.9888 212.887 67.3282 213.086 67.7024 213.179L129.553 228.506C130.355 228.705 131.196 228.39 131.671 227.715L223.461 97.0305C224.173 96.0178 223.828 94.6213 222.717 94.0768Z" fill="#2B2B2B"/>
<path d="M75.0498 199.911L152.658 67.7197L206.968 99.6046L127.256 213.857L75.0498 199.911Z" fill="#161616"/>
<path d="M84.8218 83.5758L93.0264 65.6914L138.142 92.1782L128.188 109.035L84.8218 83.5758Z" fill="#EBEAF1"/>
<path d="M108.739 142.163L118.435 126.011L76.7107 101.301C74.1466 106.863 68.9437 118.114 68.6444 118.624C68.3452 119.134 95.1962 134.498 108.739 142.163Z" fill="#EBEAF1"/>
<path d="M82.838 186.28L93.03 168.92L75.8413 151.975L82.3707 138.247L64.4486 127.725L51.532 155.265L82.838 186.28Z" fill="#EBEAF1"/>
<path d="M84.8218 83.5758L93.0264 65.6914L138.142 92.1782L128.188 109.035L84.8218 83.5758Z" stroke="#EBEAF1"/>
<path d="M108.739 142.163L118.435 126.011L76.7107 101.301C74.1466 106.863 68.9437 118.114 68.6444 118.624C68.3452 119.134 95.1962 134.498 108.739 142.163Z" stroke="#EBEAF1"/>
<path d="M82.838 186.28L93.03 168.92L75.8413 151.975L82.3707 138.247L64.4486 127.725L51.532 155.265L82.838 186.28Z" stroke="#EBEAF1"/>
<path d="M122.31 199.085L82.9032 186.319L93.0951 168.959L118.319 176.7L132.535 156.134L108.804 142.202L118.341 125.957L144.62 141.385L156.031 125.597L128.253 109.074L138.164 92.1919L181.16 119.273L122.31 199.085Z" fill="white" stroke="white"/>
</g>
<path d="M153.496 36.2531L157.712 40.7643C155.317 43.1823 152.811 44.5726 150.191 44.9351C147.591 45.2925 144.884 44.6805 142.072 43.0993C138.592 41.1429 136.398 38.3491 135.491 34.7179C134.59 31.0748 135.299 27.1914 137.617 23.0679C140.07 18.7061 143.099 15.9546 146.705 14.8136C150.317 13.6606 153.959 14.116 157.629 16.1796C160.835 17.9819 162.906 20.3933 163.843 23.4138C164.405 25.2041 164.395 27.3154 163.811 29.7479L157.87 28.0546C158.324 26.5218 158.277 25.0841 157.73 23.7414C157.195 22.4054 156.225 21.3422 154.818 20.5516C152.876 19.4594 150.905 19.2689 148.905 19.9798C146.918 20.6975 145.046 22.6175 143.291 25.7399C141.428 29.053 140.698 31.7477 141.099 33.824C141.5 35.9003 142.654 37.4744 144.561 38.5464C145.967 39.337 147.428 39.5702 148.943 39.2459C150.459 38.9216 151.976 37.924 153.496 36.2531ZM161.221 42.0549L166.651 44.4487C165.989 46.351 165.902 47.972 166.387 49.3117C166.885 50.6581 167.939 51.7835 169.547 52.688C171.252 53.6461 172.734 54.0089 173.994 53.7762C175.273 53.5383 176.183 52.9367 176.726 51.9714C177.074 51.3517 177.184 50.7235 177.056 50.0867C176.947 49.4448 176.529 48.7083 175.805 47.8773C175.305 47.3144 174.108 46.1391 172.211 44.3514C169.77 42.0536 168.265 40.0707 167.698 38.4026C166.899 36.056 167.083 33.8459 168.249 31.7723C168.999 30.4375 170.075 29.4032 171.476 28.6693C172.895 27.9301 174.485 27.6553 176.245 27.8448C178.016 28.041 179.909 28.7053 181.923 29.8376C185.213 31.6868 187.28 33.7981 188.126 36.1714C188.984 38.5515 188.778 40.9686 187.508 43.4229L182.086 40.6804C182.616 39.2065 182.67 37.9664 182.248 36.9604C181.844 35.9491 180.897 35.0247 179.407 34.1872C177.87 33.3229 176.489 32.962 175.264 33.1045C174.476 33.1948 173.891 33.5796 173.509 34.2589C173.161 34.8786 173.125 35.5564 173.401 36.2921C173.754 37.2275 175.046 38.7226 177.279 40.7776C179.511 42.8326 181.057 44.5329 181.916 45.8785C182.794 47.2189 183.26 48.6494 183.314 50.1702C183.388 51.6858 182.959 53.2718 182.027 54.9284C181.183 56.43 179.976 57.6018 178.404 58.4437C176.833 59.2856 175.104 59.5996 173.217 59.3855C171.336 59.1595 169.258 58.4067 166.981 57.127C163.668 55.2644 161.553 53.0712 160.634 50.5474C159.723 48.0118 159.919 45.1809 161.221 42.0549ZM185.64 55.7833L191.07 58.1771C190.409 60.0794 190.321 61.7004 190.807 63.0401C191.304 64.3865 192.358 65.5119 193.967 66.4164C195.671 67.3745 197.153 67.7373 198.413 67.5046C199.692 67.2667 200.602 66.6651 201.145 65.6998C201.494 65.0801 201.604 64.4519 201.475 63.8151C201.366 63.1732 200.949 62.4367 200.224 61.6057C199.725 61.0428 198.527 59.8675 196.63 58.0798C194.189 55.782 192.685 53.7991 192.117 52.131C191.319 49.7844 191.502 47.5743 192.668 45.5007C193.419 44.1659 194.494 43.1316 195.895 42.3976C197.314 41.6585 198.904 41.3837 200.664 41.5732C202.436 41.7694 204.328 42.4337 206.343 43.566C209.632 45.4152 211.699 47.5265 212.545 49.8998C213.403 52.2799 213.197 54.697 211.927 57.1513L206.505 54.4088C207.035 52.9348 207.09 51.6948 206.667 50.6888C206.263 49.6775 205.316 48.7531 203.827 47.9156C202.289 47.0513 200.908 46.6904 199.683 46.8329C198.895 46.9232 198.31 47.308 197.928 47.9873C197.58 48.607 197.544 49.2848 197.82 50.0205C198.173 50.9558 199.465 52.451 201.698 54.506C203.93 56.561 205.476 58.2613 206.335 59.6069C207.213 60.9472 207.679 62.3778 207.734 63.8986C207.807 65.4141 207.378 67.0002 206.447 68.6568C205.602 70.1584 204.395 71.3301 202.823 72.1721C201.252 73.014 199.523 73.328 197.636 73.1139C195.755 72.8879 193.677 72.1351 191.401 70.8554C188.087 68.9928 185.972 66.7996 185.054 64.2758C184.142 61.7401 184.338 58.9093 185.64 55.7833Z" fill="white"/>
<defs>
<filter id="filter0_d_1870_1594" x="18.335" y="17.9973" width="209.498" height="218.568" filterUnits="userSpaceOnUse" color-interpolation-filters="sRGB">
<feFlood flood-opacity="0" result="BackgroundImageFix"/>
<feColorMatrix in="SourceAlpha" type="matrix" values="0 0 0 0 0 0 0 0 0 0 0 0 0 0 0 0 0 0 127 0" result="hardAlpha"/>
<feOffset dy="4"/>
<feGaussianBlur stdDeviation="2"/>
<feComposite in2="hardAlpha" operator="out"/>
<feColorMatrix type="matrix" values="0 0 0 0 0 0 0 0 0 0 0 0 0 0 0 0 0 0 0.25 0"/>
<feBlend mode="normal" in2="BackgroundImageFix" result="effect1_dropShadow_1870_1594"/>
<feBlend mode="normal" in="SourceGraphic" in2="effect1_dropShadow_1870_1594" result="shape"/>
</filter>
</defs>
</svg>
