<svg width="77" height="71" viewBox="0 0 77 71" fill="none" xmlns="http://www.w3.org/2000/svg">
<path d="M36.4223 8.95333C38.8212 4.91674 44.6652 4.91674 47.0642 8.95333C48.5687 11.4849 51.6486 12.606 54.4284 11.6338C58.8606 10.0837 63.3371 13.8406 62.5804 18.4746C62.1058 21.3811 63.7445 24.2199 66.4989 25.2622C70.8906 26.924 71.9053 32.6793 68.3468 35.743C66.115 37.6645 65.5459 40.8926 66.9859 43.4616C69.2819 47.5574 66.3603 52.6188 61.6651 52.6782C58.7204 52.7154 56.2096 54.8225 55.6616 57.716C54.7879 62.3295 49.2964 64.3286 45.6617 61.356C43.382 59.4916 40.1044 59.4916 37.8248 61.356C34.1901 64.3286 28.6986 62.3295 27.8249 57.716C27.2769 54.8225 24.7661 52.7154 21.8213 52.6782C17.1262 52.6188 14.2046 47.5574 16.5006 43.4616C17.9406 40.8926 17.3715 37.6645 15.1397 35.743C11.5812 32.6793 12.5958 26.924 16.9876 25.2622C19.742 24.2199 21.3807 21.3811 20.9061 18.4746C20.1494 13.8406 24.6258 10.0837 29.058 11.6338C31.8379 12.606 34.9178 11.4849 36.4223 8.95333Z" fill="#9DF49B"/>
<path d="M30.847 9.20878C33.0522 5.49826 38.4241 5.49826 40.6292 9.20878C42.2553 11.9449 45.584 13.1565 48.5884 12.1057C52.6625 10.6809 56.7774 14.1342 56.0818 18.394C55.5689 21.5353 57.3399 24.6034 60.3168 25.7298C64.3538 27.2574 65.2865 32.5478 62.0154 35.3641C59.6034 37.4408 58.9883 40.9296 60.5447 43.706C62.6552 47.4712 59.9695 52.1236 55.6537 52.1782C52.4711 52.2185 49.7575 54.4957 49.1652 57.623C48.3621 61.8638 43.3142 63.7014 39.9731 60.9689C37.5093 58.954 33.967 58.954 31.5032 60.9689C28.1621 63.7014 23.1142 61.8638 22.311 57.623C21.7188 54.4957 19.0052 52.2185 15.8226 52.1782C11.5068 52.1236 8.82104 47.4712 10.9316 43.706C12.4879 40.9296 11.8729 37.4408 9.46084 35.3641C6.18974 32.5478 7.12246 27.2574 11.1595 25.7298C14.1364 24.6034 15.9074 21.5353 15.3945 18.394C14.6988 14.1342 18.8138 10.6809 22.8879 12.1057C25.8923 13.1565 29.221 11.9449 30.847 9.20878Z" stroke="#00071C"/>
</svg>
