<svg width="50" height="50" viewBox="0 0 50 50" fill="none" xmlns="http://www.w3.org/2000/svg">
<path d="M38.7958 14.3771L33.7708 16.7468V22.3093C33.7708 22.5968 33.5374 22.8302 33.2499 22.8302H16.7499C16.4624 22.8302 16.2291 22.5968 16.2291 22.3093V16.7468L11.9478 14.7281V18.4552C12.5531 18.6708 12.9906 19.2437 12.9906 19.9229C12.9906 20.7854 12.2895 21.4864 11.427 21.4864C10.5645 21.4864 9.86347 20.7854 9.86347 19.9229C9.86347 19.2437 10.301 18.6708 10.9062 18.4552V13.9062C10.9062 13.8146 10.9364 13.7333 10.977 13.6583C10.9874 13.6385 10.9999 13.6229 11.0135 13.6052C11.0583 13.5437 11.1124 13.4937 11.1791 13.4573C11.1874 13.4521 11.1916 13.4416 11.201 13.4375L24.7739 6.8958C24.9176 6.82705 25.0833 6.82705 25.227 6.8958L38.7999 13.4375C38.9801 13.5239 39.0958 13.7083 39.0947 13.9083C39.0926 14.1093 38.977 14.2916 38.7958 14.3771ZM17.2708 21.7885H32.7291V16.4166V14.4552L31.2093 14.2125C27.0895 13.55 22.9114 13.55 18.7916 14.2125L17.2718 14.4552V16.4166L17.2708 21.7885ZM11.427 20.4448C11.7145 20.4448 11.9489 20.2104 11.9489 19.9229C11.9489 19.6354 11.7145 19.401 11.427 19.401C11.1395 19.401 10.9051 19.6354 10.9051 19.9229C10.9051 20.2104 11.1395 20.4448 11.427 20.4448ZM24.9999 7.94268L12.6374 13.901L16.2291 15.5948V14.0104C16.2291 13.9427 16.2437 13.8781 16.2676 13.8177C16.276 13.7968 16.2906 13.7791 16.302 13.7593C16.3218 13.7229 16.3426 13.6885 16.3708 13.6583C16.3885 13.6396 16.4093 13.626 16.4301 13.6093C16.4593 13.5854 16.4895 13.5635 16.5239 13.5468C16.5489 13.5343 16.5749 13.5281 16.602 13.5198C16.6249 13.5125 16.6447 13.5 16.6697 13.4958L18.627 13.1833C22.8583 12.5031 27.1468 12.5031 31.376 13.1833L33.3343 13.4958C33.3583 13.5 33.3781 13.5125 33.401 13.5198C33.4281 13.5281 33.4541 13.5343 33.4791 13.5468C33.5135 13.5635 33.5426 13.5864 33.5718 13.6093C33.5916 13.626 33.6135 13.6396 33.6312 13.6583C33.6593 13.6885 33.6791 13.7239 33.6989 13.7593C33.7103 13.7791 33.7249 13.7958 33.7333 13.8177C33.7572 13.8781 33.7718 13.9416 33.7718 14.0104V15.5948L37.3635 13.901L24.9999 7.94268Z" fill="white" stroke="white" stroke-width="0.5"/>
<path d="M42.1872 43.2292H30.7288H19.2705H7.81217C7.52467 43.2292 7.29134 42.9959 7.29134 42.7084V31.2501C7.29134 30.9626 7.52467 30.7292 7.81217 30.7292H18.7497V25.0001C18.7497 24.7126 18.983 24.4792 19.2705 24.4792H30.7288C31.0163 24.4792 31.2497 24.7126 31.2497 25.0001V33.3334H42.1872C42.4747 33.3334 42.708 33.5667 42.708 33.8542V42.7084C42.708 42.9959 42.4747 43.2292 42.1872 43.2292ZM8.333 31.7709V42.1876H18.7497V31.7709H8.333ZM30.208 25.5209H19.7913V31.2501V42.1876H30.208V33.8542V25.5209ZM41.6663 34.3751H31.2497V42.1876H41.6663V34.3751Z" fill="white" stroke="white" stroke-width="0.5"/>
</svg>
