<svg width="118" height="117" viewBox="0 0 118 117" fill="none" xmlns="http://www.w3.org/2000/svg">
<path d="M53.4126 3.41677C53.2377 1.69278 54.4954 0.145444 56.2264 0.0646479C67.6711 -0.46956 79.0508 2.31213 88.9601 8.10365C99.7727 14.4232 108.271 23.997 113.22 35.4336C118.169 46.8703 119.311 59.5738 116.479 71.6979C113.647 83.822 106.99 94.7348 97.4745 102.85C87.9591 110.966 76.0814 115.861 63.5678 116.824C51.0542 117.788 38.5568 114.769 27.8919 108.208C17.227 101.646 8.95037 91.8832 4.26501 80.3379C-0.0248973 69.7671 -1.09952 58.2064 1.13596 47.0757C1.47846 45.3703 3.20186 44.3551 4.88798 44.7825C6.58387 45.2124 7.59724 46.9378 7.26476 48.6554C5.36224 58.484 6.34414 68.6726 10.1288 77.9984C14.3122 88.3068 21.7021 97.0239 31.2245 102.883C40.7468 108.741 51.9054 111.436 63.0785 110.576C74.2515 109.716 84.8567 105.345 93.3527 98.099C101.849 90.853 107.793 81.1092 110.321 70.284C112.849 59.4588 111.83 48.1162 107.411 37.9047C102.993 27.6933 95.4047 19.1451 85.7505 13.5026C76.9967 8.3864 66.9576 5.90086 56.8487 6.31065C55.1215 6.38067 53.587 5.13663 53.4126 3.41677Z" fill="url(#paint0_linear_683_1331)"/>
<defs>
<linearGradient id="paint0_linear_683_1331" x1="12.5504" y1="117" x2="145.564" y2="103.57" gradientUnits="userSpaceOnUse">
<stop stop-color="#0023FE"/>
<stop offset="1" stop-color="#9DF79B"/>
</linearGradient>
</defs>
</svg>
