<svg width="60" height="57" viewBox="0 0 60 57" fill="none" xmlns="http://www.w3.org/2000/svg">
<circle cx="26.6665" cy="29.6665" r="18.5" transform="rotate(-52.0562 26.6665 29.6665)" stroke="#9DF49B"/>
<path d="M30.4936 33.956L33.3574 26.0732L25.3303 23.6433C25.2506 23.6071 25.163 23.5882 25.0734 23.5879C24.9837 23.5876 24.8942 23.6059 24.8107 23.6416C24.7273 23.6773 24.6519 23.7295 24.5897 23.7948C24.5275 23.86 24.4799 23.9367 24.4502 24.0197C24.4205 24.1027 24.4093 24.19 24.4174 24.2758C24.4255 24.3616 24.4528 24.4438 24.4973 24.5168C24.5417 24.5899 24.6025 24.6521 24.6753 24.6993C24.7482 24.7465 24.8314 24.7775 24.9194 24.7903L30.9312 26.6203L20.0912 32.0477C19.941 32.1229 19.825 32.2513 19.7688 32.4046C19.7127 32.5579 19.721 32.7236 19.7918 32.8652C19.8627 33.0067 19.9904 33.1126 20.1468 33.1595C20.3032 33.2064 20.4755 33.1905 20.6257 33.1152L31.4657 27.6879L29.3291 33.5977C29.2735 33.7512 29.2824 33.9169 29.3538 34.0583C29.4253 34.1997 29.5534 34.3052 29.7101 34.3516C29.8668 34.398 30.0391 34.3814 30.1892 34.3056C30.3394 34.2299 30.4549 34.101 30.5106 33.9475L30.4936 33.956Z" fill="#9DF49B"/>
<circle cx="32.9997" cy="26.6665" r="18.5" transform="rotate(-52.0562 32.9997 26.6665)" fill="#9DF49B" stroke="#9DF49B"/>
<path d="M36.8267 30.956L39.6905 23.0732L31.6634 20.6433C31.5838 20.6071 31.4961 20.5882 31.4065 20.5879C31.3169 20.5876 31.2273 20.6059 31.1439 20.6416C31.0604 20.6773 30.985 20.7295 30.9228 20.7948C30.8606 20.86 30.8131 20.9367 30.7833 21.0197C30.7536 21.1027 30.7424 21.19 30.7505 21.2758C30.7587 21.3616 30.7859 21.4438 30.8304 21.5168C30.8749 21.5899 30.9356 21.6521 31.0084 21.6993C31.0813 21.7465 31.1645 21.7775 31.2526 21.7903L37.2644 23.6203L26.4244 29.0477C26.2741 29.1229 26.1581 29.2513 26.102 29.4046C26.0458 29.5579 26.0541 29.7236 26.125 29.8652C26.1959 30.0067 26.3235 30.1126 26.4799 30.1595C26.6363 30.2064 26.8086 30.1905 26.9589 30.1152L37.7989 24.6879L35.6622 30.5977C35.6066 30.7512 35.6155 30.9169 35.687 31.0583C35.7584 31.1997 35.8866 31.3052 36.0432 31.3516C36.1999 31.398 36.3723 31.3814 36.5224 31.3056C36.6725 31.2299 36.7881 31.101 36.8437 30.9475L36.8267 30.956Z" fill="#00071C"/>
</svg>
