<svg width="231" height="249" viewBox="0 0 231 249" fill="none" xmlns="http://www.w3.org/2000/svg">
<path d="M154.161 54.635C124.263 70.0801 55.5758 97.543 22.3292 110.365C21.2096 110.796 20.7442 112.099 21.3064 113.16L94.2419 250.701C94.6261 251.426 95.4135 251.842 96.2285 251.752L157.298 245.005C157.688 244.962 158.055 244.805 158.357 244.555L205.356 205.521C205.989 204.995 206.235 204.134 205.976 203.352L156.98 55.7951C156.59 54.6207 155.261 54.067 154.161 54.635Z" fill="#2B2B2B"/>
<path d="M152.233 231.118L93.9717 93.6089L149.573 70.0514L192.738 198.714L152.233 231.118Z" fill="#1C1C1C"/>
<path d="M101.459 111.737L144.016 93.706L150.34 112.718L109.251 130.127L101.459 111.737Z" fill="white"/>
<path d="M124.788 166.34L117.277 148.613L157.714 131.48L175.801 188.694L144.793 213.557L136.791 194.67L153.226 181.258L145.17 157.704L124.788 166.34Z" fill="white"/>
<path d="M58.1582 130.278L101.53 111.902L109.111 129.795L84.9794 140.019L94.3086 157.953L117.183 148.847L124.554 166.243L86.1663 182.312L58.1582 130.278Z" fill="#EBEBED"/>
<path d="M144.535 213.402L136.68 194.864L115.281 197.921L107.845 183.093L90.3984 190.485L104.569 218.483L144.535 213.402Z" fill="#EBEBED"/>
<path d="M58.1582 130.278L101.53 111.902L109.111 129.795L84.9794 140.019L94.3086 157.953L117.183 148.847L124.554 166.243L86.1663 182.312L58.1582 130.278Z" stroke="#EBEBED"/>
<path d="M144.535 213.402L136.68 194.864L115.281 197.921L107.845 183.093L90.3984 190.485L104.569 218.483L144.535 213.402Z" stroke="#EBEBED"/>
<path d="M25.6474 101.289L12.3079 69.6245L18.7012 66.9311L23.9515 79.3938L36.479 74.1162L31.2287 61.6535L37.622 58.9602L50.9615 90.6244L44.5682 93.3178L38.7356 79.4728L26.2081 84.7504L32.0407 98.5954L25.6474 101.289ZM64.7201 84.8282L53.6372 58.5205L44.2416 62.4787L41.985 57.1221L67.1479 46.5215L69.4045 51.878L60.0305 55.8271L71.1135 82.1348L64.7201 84.8282ZM84.5481 76.475L71.2085 44.8108L80.7769 40.7798L95.6216 59.9585L92.2028 35.9663L101.793 31.9262L115.132 63.5905L109.193 66.0928L98.6921 41.1674L102.907 68.7406L96.7515 71.3339L79.9873 49.0474L90.4878 73.9727L84.5481 76.475ZM121.655 60.8425L108.425 29.4374L114.818 26.7441L125.801 52.8141L141.698 46.1171L143.946 51.452L121.655 60.8425Z" fill="white"/>
</svg>
