<svg width="117" height="117" viewBox="0 0 117 117" fill="none" xmlns="http://www.w3.org/2000/svg">
<path d="M39.4038 88.4262C39.9152 88.8812 40.5863 89.1144 41.2697 89.0745C41.953 89.0347 42.5925 88.725 43.0475 88.2136C43.5024 87.7023 43.7356 87.0311 43.6958 86.3478C43.6559 85.6645 43.3462 85.025 42.8349 84.57C37.1108 79.4939 33.5473 72.419 32.876 64.7979C32.2048 57.1767 34.4767 49.5878 39.2254 43.5893L46.8114 75.4417L72.8392 87.0849L76.9231 92.3307C77.0777 92.5374 77.2768 92.7067 77.5056 92.826C77.7345 92.9453 77.9873 93.0116 78.2453 93.0199C78.5032 93.0283 78.7598 92.9785 78.9959 92.8742C79.232 92.77 79.4416 92.614 79.6093 92.4177L94.9346 75.1934C95.1101 75.004 95.2407 74.7777 95.3168 74.531C95.3928 74.2844 95.4125 74.0238 95.3742 73.7686C95.3359 73.5133 95.2406 73.27 95.0955 73.0565C94.9504 72.8431 94.7591 72.665 94.5359 72.5355L88.8508 69.0893L74.2599 44.5921L41.7415 40.7614C47.1471 35.3475 54.4203 32.2085 62.0678 31.9889C69.7153 31.7694 77.1566 34.486 82.8639 39.581C83.3752 40.036 84.0464 40.2692 84.7297 40.2294C85.413 40.1895 86.0525 39.8798 86.5075 39.3685C86.9625 38.8571 87.1957 38.1859 87.1558 37.5026C87.116 36.8193 86.8063 36.1798 86.2949 35.7248C80.7093 30.7941 73.7119 27.7489 66.2968 27.022C58.8817 26.2951 51.4261 27.9234 44.9893 31.6756L51.5083 24.3488L52.151 24.9207C52.8328 25.5273 53.7277 25.8383 54.6388 25.7851C55.5499 25.732 56.4025 25.3191 57.0092 24.6373L61.5839 19.4957C62.1906 18.8139 62.5015 17.919 62.4484 17.0079C62.3952 16.0968 61.9823 15.2441 61.3005 14.6375L56.1589 10.0628C55.4771 9.45611 54.5822 9.14516 53.6711 9.19831C52.76 9.25146 51.9074 9.66437 51.3007 10.3462L46.726 15.4878C46.1194 16.1696 45.8084 17.0645 45.8616 17.9756C45.9147 18.8866 46.3276 19.7393 47.0094 20.346L47.6521 20.9178L20.2037 51.7674L19.561 51.1955C18.8792 50.5889 17.9843 50.2779 17.0732 50.3311C16.1621 50.3842 15.3094 50.7971 14.7028 51.479L10.1281 56.6206C9.52141 57.3024 9.21046 58.1973 9.26361 59.1083C9.31676 60.0194 9.72967 60.8721 10.4115 61.4787L15.5531 66.0535C16.2349 66.6601 17.1298 66.9711 18.0409 66.9179C18.9519 66.8648 19.8046 66.4519 20.4113 65.77L24.986 60.6284C25.5926 59.9466 25.9036 59.0517 25.8504 58.1407C25.7973 57.2296 25.3844 56.3769 24.7026 55.7703L24.0599 55.1984L30.5789 47.8717C27.6006 54.7011 26.8503 62.2955 28.4346 69.5757C30.0188 76.856 33.857 83.4518 39.4038 88.4262ZM80.3925 68.2422L71.0143 78.7825L52.7434 70.5865L48.7363 54.1244L56.1916 60.7578C55.9144 61.922 55.9621 63.1399 56.3294 64.2789C56.6967 65.4179 57.3695 66.4342 58.2746 67.2171C59.6383 68.4304 61.428 69.0523 63.2502 68.946C65.0724 68.8397 66.7777 68.0139 67.991 66.6502C69.2043 65.2866 69.8262 63.4968 69.7199 61.6747C69.6136 59.8525 68.7878 58.1472 67.4241 56.9339C66.5413 56.126 65.4536 55.5759 64.2796 55.3435C63.1057 55.1112 61.8904 55.2055 60.7664 55.6162L53.3111 48.9828L70.1274 51.0484L80.3925 68.2422ZM51.7259 17.6334L54.0133 15.0626L56.5841 17.35L54.2967 19.9208L51.7259 17.6334ZM19.9861 58.4828L17.6987 61.0536L15.1279 58.7662L17.4153 56.1954L19.9861 58.4828Z" fill="#1C35D0" fill-opacity="0.5"/>
</svg>
