<svg width="30" height="31" viewBox="0 0 30 31" fill="none" xmlns="http://www.w3.org/2000/svg">
<path d="M21.0906 10.8922C20.9605 10.5551 20.7611 10.249 20.5055 9.99358C20.2498 9.73819 19.9435 9.53918 19.6063 9.40938C19.1419 9.23738 18.6514 9.14648 18.1563 9.14062C17.3328 9.10313 17.0859 9.09375 15 9.09375C12.9141 9.09375 12.6672 9.10313 11.8438 9.14062C11.3481 9.1463 10.8571 9.23721 10.3922 9.40938C10.0551 9.53954 9.74897 9.73887 9.49358 9.99452C9.23819 10.2502 9.03919 10.5565 8.90938 10.8938C8.73739 11.3581 8.64648 11.8486 8.64063 12.3438C8.60313 13.1672 8.59376 13.4141 8.59376 15.5C8.59376 17.5859 8.60313 17.8328 8.64063 18.6562C8.64631 19.1519 8.73721 19.643 8.90938 20.1078C9.03954 20.4449 9.23887 20.751 9.49453 21.0064C9.75019 21.2618 10.0565 21.4608 10.3938 21.5906C10.8581 21.7626 11.3486 21.8535 11.8438 21.8594C12.6672 21.8969 12.9141 21.9047 15 21.9047C17.0859 21.9047 17.3328 21.8969 18.1563 21.8578C18.6519 21.8526 19.1429 21.7623 19.6078 21.5906C19.9449 21.4605 20.251 21.2611 20.5064 21.0055C20.7618 20.7498 20.9608 20.4435 21.0906 20.1063C21.2626 19.6419 21.3535 19.1514 21.3594 18.6562C21.3969 17.8328 21.4047 17.5859 21.4047 15.5C21.4047 13.4141 21.3969 13.1672 21.3578 12.3438C21.3526 11.8482 21.2623 11.3571 21.0906 10.8922ZM15 19.5125C14.2064 19.5125 13.4306 19.2772 12.7708 18.8363C12.1109 18.3954 11.5966 17.7687 11.2929 17.0355C10.9892 16.3023 10.9098 15.4955 11.0646 14.7172C11.2194 13.9389 11.6016 13.2239 12.1627 12.6627C12.7239 12.1016 13.4389 11.7194 14.2172 11.5646C14.9956 11.4098 15.8023 11.4892 16.5355 11.7929C17.2687 12.0966 17.8954 12.6109 18.3363 13.2708C18.7772 13.9306 19.0125 14.7064 19.0125 15.5C19.0125 16.5642 18.5898 17.5848 17.8373 18.3373C17.0848 19.0898 16.0642 19.5125 15 19.5125ZM19.1703 12.2672C18.9849 12.2672 18.8036 12.2122 18.6495 12.1092C18.4953 12.0062 18.3751 11.8598 18.3042 11.6885C18.2332 11.5171 18.2147 11.3286 18.2508 11.1468C18.287 10.9649 18.3763 10.7979 18.5074 10.6668C18.6385 10.5357 18.8056 10.4464 18.9874 10.4102C19.1693 10.374 19.3578 10.3926 19.5291 10.4636C19.7004 10.5345 19.8468 10.6547 19.9498 10.8088C20.0528 10.963 20.1078 11.1443 20.1078 11.3297C20.1078 11.5783 20.009 11.8168 19.8332 11.9926C19.6574 12.1684 19.419 12.2672 19.1703 12.2672ZM17.6047 15.5C17.6047 16.0152 17.4519 16.5187 17.1657 16.9471C16.8795 17.3754 16.4727 17.7093 15.9968 17.9064C15.5208 18.1036 14.9971 18.1551 14.4919 18.0546C13.9866 17.9541 13.5225 17.7061 13.1582 17.3418C12.7939 16.9775 12.5459 16.5134 12.4454 16.0081C12.3449 15.5029 12.3964 14.9792 12.5936 14.5032C12.7907 14.0273 13.1246 13.6205 13.5529 13.3343C13.9813 13.0481 14.4848 12.8953 15 12.8953C15.6908 12.8953 16.3533 13.1697 16.8418 13.6582C17.3303 14.1467 17.6047 14.8092 17.6047 15.5ZM15 0.5C12.0333 0.5 9.13319 1.37973 6.66645 3.02796C4.19972 4.67618 2.27713 7.01886 1.14181 9.75975C0.00649923 12.5006 -0.290551 15.5166 0.288228 18.4264C0.867006 21.3361 2.29562 24.0088 4.3934 26.1066C6.49119 28.2044 9.16394 29.633 12.0737 30.2118C14.9834 30.7906 17.9994 30.4935 20.7403 29.3582C23.4811 28.2229 25.8238 26.3003 27.472 23.8336C29.1203 21.3668 30 18.4667 30 15.5C30 11.5218 28.4197 7.70644 25.6066 4.8934C22.7936 2.08035 18.9783 0.5 15 0.5ZM22.7656 18.7203C22.7524 19.3686 22.6293 20.01 22.4016 20.6172C22.2009 21.1361 21.8941 21.6073 21.5007 22.0007C21.1073 22.394 20.6361 22.7009 20.1172 22.9016C19.5105 23.1291 18.8697 23.2522 18.2219 23.2656C17.3875 23.3031 17.1219 23.3125 15 23.3125C12.8781 23.3125 12.6125 23.3031 11.7781 23.2656C11.1303 23.2522 10.4895 23.1291 9.88282 22.9016C9.36395 22.7009 8.89272 22.394 8.49934 22.0007C8.10596 21.6073 7.79911 21.1361 7.59844 20.6172C7.37088 20.0105 7.24779 19.3697 7.23438 18.7219C7.19688 17.8875 7.18751 17.6219 7.18751 15.5C7.18751 13.3781 7.19688 13.1125 7.23438 12.2781C7.24729 11.6304 7.36985 10.9896 7.59688 10.3828C7.79753 9.8635 8.10455 9.39187 8.49821 8.99821C8.89188 8.60454 9.36351 8.29753 9.88282 8.09688C10.4896 7.86985 11.1304 7.74728 11.7781 7.73438C12.6125 7.69688 12.8781 7.6875 15 7.6875C17.1219 7.6875 17.3875 7.69688 18.2219 7.73438C18.8696 7.74728 19.5104 7.86985 20.1172 8.09688C20.6362 8.29771 21.1075 8.6048 21.5009 8.99846C21.8943 9.39212 22.2011 9.86365 22.4016 10.3828C22.6291 10.9895 22.7522 11.6303 22.7656 12.2781C22.8031 13.1125 22.8125 13.3781 22.8125 15.5C22.8125 17.6219 22.8031 17.8859 22.7656 18.7203Z" fill="#00071C"/>
</svg>
