<svg width="200" height="200" viewBox="0 0 200 200" fill="none" xmlns="http://www.w3.org/2000/svg">
<g filter="url(#filter0_d_1894_1601)">
<path d="M10.4777 38.7217C10.4771 23.2577 23.0126 10.7212 38.4766 10.7205L161.529 10.7154C176.993 10.7148 189.529 23.2503 189.53 38.7143L189.536 179.073C189.537 194.537 177.001 207.074 161.537 207.074L38.4847 207.079C23.0207 207.08 10.4842 194.544 10.4835 179.08L10.4777 38.7217Z" fill="url(#paint0_linear_1894_1601)"/>
</g>
<g filter="url(#filter1_f_1894_1601)">
<path d="M119.397 134.5L128.615 134.638L127.951 163.631C127.864 167.421 127.464 170.332 126.75 172.363C125.794 175.016 124.12 177.137 121.729 178.726C119.338 180.295 116.216 181.05 112.362 180.993C107.842 180.925 104.392 179.613 102.012 177.057C99.6332 174.479 98.4893 170.743 98.5806 165.848L107.321 164.979C107.365 167.605 107.708 169.464 108.35 170.557C109.312 172.217 110.814 173.063 112.855 173.093C114.918 173.124 116.389 172.563 117.27 171.409C118.151 170.235 118.634 167.794 118.719 164.086L119.397 134.5ZM135.437 165.649L144.456 164.908C144.929 167.936 145.972 170.171 147.585 171.612C149.219 173.053 151.442 173.795 154.254 173.837C157.233 173.881 159.487 173.29 161.015 172.062C162.565 170.815 163.359 169.347 163.398 167.66C163.423 166.577 163.121 165.656 162.492 164.896C161.885 164.116 160.796 163.433 159.226 162.847C158.151 162.456 155.698 161.753 151.866 160.737C146.936 159.435 143.492 157.873 141.534 156.051C138.779 153.489 137.443 150.396 137.526 146.772C137.58 144.439 138.286 142.273 139.644 140.272C141.024 138.251 142.966 136.728 145.469 135.702C147.993 134.678 151.015 134.191 154.536 134.244C160.285 134.33 164.579 135.654 167.417 138.218C170.275 140.782 171.729 144.168 171.779 148.378L162.52 148.646C162.179 146.286 161.363 144.586 160.074 143.546C158.806 142.485 156.871 141.936 154.267 141.897C151.58 141.857 149.463 142.377 147.917 143.458C146.922 144.152 146.411 145.092 146.383 146.279C146.359 147.362 146.796 148.296 147.695 149.08C148.839 150.077 151.648 151.14 156.123 152.269C160.599 153.398 163.896 154.552 166.015 155.73C168.156 156.887 169.808 158.464 170.971 160.46C172.155 162.436 172.714 164.872 172.647 167.767C172.587 170.391 171.802 172.838 170.291 175.107C168.781 177.377 166.679 179.054 163.987 180.139C161.296 181.203 157.96 181.705 153.982 181.646C148.191 181.559 143.774 180.16 140.731 177.447C137.689 174.714 135.924 170.781 135.437 165.649Z" fill="white"/>
</g>
<path d="M119.397 134.5L128.615 134.638L127.951 163.631C127.864 167.421 127.464 170.332 126.75 172.363C125.794 175.016 124.12 177.137 121.729 178.726C119.338 180.295 116.216 181.05 112.362 180.993C107.842 180.925 104.392 179.613 102.012 177.057C99.6332 174.479 98.4893 170.743 98.5806 165.848L107.321 164.979C107.365 167.605 107.708 169.464 108.35 170.557C109.312 172.217 110.814 173.063 112.855 173.093C114.918 173.124 116.389 172.563 117.27 171.409C118.151 170.235 118.634 167.794 118.719 164.086L119.397 134.5ZM135.437 165.649L144.456 164.908C144.929 167.936 145.972 170.171 147.585 171.612C149.219 173.053 151.442 173.795 154.254 173.837C157.233 173.881 159.487 173.29 161.015 172.062C162.565 170.815 163.359 169.347 163.398 167.66C163.423 166.577 163.121 165.656 162.492 164.896C161.885 164.116 160.796 163.433 159.226 162.847C158.151 162.456 155.698 161.753 151.866 160.737C146.936 159.435 143.492 157.873 141.534 156.051C138.779 153.489 137.443 150.396 137.526 146.772C137.58 144.439 138.286 142.273 139.644 140.272C141.024 138.251 142.966 136.728 145.469 135.702C147.993 134.678 151.015 134.191 154.536 134.244C160.285 134.33 164.579 135.654 167.417 138.218C170.275 140.782 171.729 144.168 171.779 148.378L162.52 148.646C162.179 146.286 161.363 144.586 160.074 143.546C158.806 142.485 156.871 141.936 154.267 141.897C151.58 141.857 149.463 142.377 147.917 143.458C146.922 144.152 146.411 145.092 146.383 146.279C146.359 147.362 146.796 148.296 147.695 149.08C148.839 150.077 151.648 151.14 156.123 152.269C160.599 153.398 163.896 154.552 166.015 155.73C168.156 156.887 169.808 158.464 170.971 160.46C172.155 162.436 172.714 164.872 172.647 167.767C172.587 170.391 171.802 172.838 170.291 175.107C168.781 177.377 166.679 179.054 163.987 180.139C161.296 181.203 157.96 181.705 153.982 181.646C148.191 181.559 143.774 180.16 140.731 177.447C137.689 174.714 135.924 170.781 135.437 165.649Z" fill="white"/>
<defs>
<filter id="filter0_d_1894_1601" x="0.477539" y="0.715332" width="199.059" height="216.364" filterUnits="userSpaceOnUse" color-interpolation-filters="sRGB">
<feFlood flood-opacity="0" result="BackgroundImageFix"/>
<feColorMatrix in="SourceAlpha" type="matrix" values="0 0 0 0 0 0 0 0 0 0 0 0 0 0 0 0 0 0 127 0" result="hardAlpha"/>
<feOffset/>
<feGaussianBlur stdDeviation="5"/>
<feComposite in2="hardAlpha" operator="out"/>
<feColorMatrix type="matrix" values="0 0 0 0 0 0 0 0 0 0 0 0 0 0 0 0 0 0 0.5 0"/>
<feBlend mode="normal" in2="BackgroundImageFix" result="effect1_dropShadow_1894_1601"/>
<feBlend mode="normal" in="SourceGraphic" in2="effect1_dropShadow_1894_1601" result="shape"/>
</filter>
<filter id="filter1_f_1894_1601" x="94.2383" y="129.419" width="83.1709" height="56.5002" filterUnits="userSpaceOnUse" color-interpolation-filters="sRGB">
<feFlood flood-opacity="0" result="BackgroundImageFix"/>
<feBlend mode="normal" in="SourceGraphic" in2="BackgroundImageFix" result="shape"/>
<feGaussianBlur stdDeviation="2" result="effect1_foregroundBlur_1894_1601"/>
</filter>
<linearGradient id="paint0_linear_1894_1601" x1="10.4806" y1="108.901" x2="189.533" y2="108.894" gradientUnits="userSpaceOnUse">
<stop stop-color="#0B94FF"/>
<stop offset="1" stop-color="#0D67FF"/>
</linearGradient>
</defs>
</svg>
