<svg width="200" height="217" viewBox="0 0 200 217" fill="none" xmlns="http://www.w3.org/2000/svg">
<g filter="url(#filter0_d_1767_4825)">
<path d="M10.4445 38.5119C10.4439 23.048 22.9794 10.5114 38.4434 10.5108L161.496 10.5057C176.96 10.5051 189.496 23.0406 189.497 38.5045L189.503 178.863C189.503 194.327 176.968 206.864 161.504 206.864L38.4515 206.87C22.9875 206.87 10.451 194.335 10.4503 178.871L10.4445 38.5119Z" fill="#0C72FF"/>
</g>
<g filter="url(#filter1_f_1767_4825)">
<path d="M119.364 134.291L128.581 134.428L127.917 163.421C127.831 167.211 127.431 170.122 126.717 172.153C125.76 174.806 124.086 176.927 121.695 178.516C119.305 180.085 116.183 180.841 112.329 180.783C107.808 180.715 104.359 179.403 101.979 176.847C99.6 174.269 98.4561 170.533 98.5474 165.638L107.288 164.769C107.332 167.395 107.675 169.254 108.317 170.347C109.279 172.008 110.781 172.853 112.822 172.883C114.885 172.914 116.356 172.353 117.237 171.199C118.118 170.025 118.601 167.584 118.686 163.877L119.364 134.291ZM135.404 165.439L144.423 164.699C144.896 167.727 145.938 169.961 147.552 171.402C149.186 172.843 151.409 173.585 154.221 173.627C157.2 173.671 159.454 173.08 160.982 171.853C162.532 170.605 163.326 169.137 163.365 167.45C163.389 166.367 163.087 165.446 162.459 164.687C161.852 163.907 160.763 163.224 159.193 162.638C158.118 162.247 155.665 161.543 151.833 160.528C146.903 159.225 143.459 157.663 141.5 155.842C138.746 153.279 137.41 150.186 137.493 146.562C137.547 144.23 138.253 142.063 139.611 140.062C140.991 138.041 142.933 136.518 145.436 135.493C147.96 134.468 150.982 133.982 154.503 134.034C160.252 134.12 164.546 135.445 167.383 138.008C170.242 140.572 171.696 143.958 171.746 148.168L162.487 148.436C162.145 146.076 161.33 144.376 160.041 143.336C158.773 142.276 156.837 141.726 154.234 141.687C151.546 141.647 149.43 142.167 147.884 143.248C146.889 143.942 146.377 144.882 146.35 146.07C146.325 147.153 146.762 148.086 147.661 148.871C148.805 149.867 151.615 150.93 156.09 152.059C160.565 153.189 163.863 154.342 165.982 155.52C168.123 156.677 169.775 158.254 170.937 160.25C172.122 162.227 172.681 164.662 172.614 167.557C172.554 170.182 171.769 172.628 170.258 174.898C168.748 177.167 166.646 178.844 163.954 179.929C161.262 180.993 157.927 181.495 153.948 181.436C148.157 181.349 143.741 179.95 140.698 177.238C137.655 174.504 135.891 170.572 135.404 165.439Z" fill="white"/>
</g>
<path d="M119.364 134.291L128.581 134.428L127.917 163.421C127.831 167.211 127.431 170.122 126.717 172.153C125.76 174.806 124.086 176.927 121.695 178.516C119.305 180.085 116.183 180.841 112.329 180.783C107.808 180.715 104.359 179.403 101.979 176.847C99.6 174.269 98.4561 170.533 98.5474 165.638L107.288 164.769C107.332 167.395 107.675 169.254 108.317 170.347C109.279 172.008 110.781 172.853 112.822 172.883C114.885 172.914 116.356 172.353 117.237 171.199C118.118 170.025 118.601 167.584 118.686 163.877L119.364 134.291ZM135.404 165.439L144.423 164.699C144.896 167.727 145.938 169.961 147.552 171.402C149.186 172.843 151.409 173.585 154.221 173.627C157.2 173.671 159.454 173.08 160.982 171.853C162.532 170.605 163.326 169.137 163.365 167.45C163.389 166.367 163.087 165.446 162.459 164.687C161.852 163.907 160.763 163.224 159.193 162.638C158.118 162.247 155.665 161.543 151.833 160.528C146.903 159.225 143.459 157.663 141.5 155.842C138.746 153.279 137.41 150.186 137.493 146.562C137.547 144.23 138.253 142.063 139.611 140.062C140.991 138.041 142.933 136.518 145.436 135.493C147.96 134.468 150.982 133.982 154.503 134.034C160.252 134.12 164.546 135.445 167.383 138.008C170.242 140.572 171.696 143.958 171.746 148.168L162.487 148.436C162.145 146.076 161.33 144.376 160.041 143.336C158.773 142.276 156.837 141.726 154.234 141.687C151.546 141.647 149.43 142.167 147.884 143.248C146.889 143.942 146.377 144.882 146.35 146.07C146.325 147.153 146.762 148.086 147.661 148.871C148.805 149.867 151.615 150.93 156.09 152.059C160.565 153.189 163.863 154.342 165.982 155.52C168.123 156.677 169.775 158.254 170.937 160.25C172.122 162.227 172.681 164.662 172.614 167.557C172.554 170.182 171.769 172.628 170.258 174.898C168.748 177.167 166.646 178.844 163.954 179.929C161.262 180.993 157.927 181.495 153.948 181.436C148.157 181.349 143.741 179.95 140.698 177.238C137.655 174.504 135.891 170.572 135.404 165.439Z" fill="white"/>
<defs>
<filter id="filter0_d_1767_4825" x="0.444336" y="0.505737" width="199.059" height="216.364" filterUnits="userSpaceOnUse" color-interpolation-filters="sRGB">
<feFlood flood-opacity="0" result="BackgroundImageFix"/>
<feColorMatrix in="SourceAlpha" type="matrix" values="0 0 0 0 0 0 0 0 0 0 0 0 0 0 0 0 0 0 127 0" result="hardAlpha"/>
<feOffset/>
<feGaussianBlur stdDeviation="5"/>
<feComposite in2="hardAlpha" operator="out"/>
<feColorMatrix type="matrix" values="0 0 0 0 0 0 0 0 0 0 0 0 0 0 0 0 0 0 0.5 0"/>
<feBlend mode="normal" in2="BackgroundImageFix" result="effect1_dropShadow_1767_4825"/>
<feBlend mode="normal" in="SourceGraphic" in2="effect1_dropShadow_1767_4825" result="shape"/>
</filter>
<filter id="filter1_f_1767_4825" x="94.2051" y="129.209" width="83.1709" height="56.5002" filterUnits="userSpaceOnUse" color-interpolation-filters="sRGB">
<feFlood flood-opacity="0" result="BackgroundImageFix"/>
<feBlend mode="normal" in="SourceGraphic" in2="BackgroundImageFix" result="shape"/>
<feGaussianBlur stdDeviation="2" result="effect1_foregroundBlur_1767_4825"/>
</filter>
</defs>
</svg>
