<svg width="30" height="31" viewBox="0 0 30 31" fill="none" xmlns="http://www.w3.org/2000/svg">
<path d="M14.9996 1.1001C7.04661 1.1001 0.599609 7.5471 0.599609 15.5001C0.599609 23.4531 7.04661 29.9001 14.9996 29.9001C22.9526 29.9001 29.3996 23.4531 29.3996 15.5001C29.3996 7.5471 22.9526 1.1001 14.9996 1.1001ZM11.4746 21.4686H8.55861V12.0846H11.4746V21.4686ZM9.99861 10.9326C9.07761 10.9326 8.48211 10.2801 8.48211 9.4731C8.48211 8.6496 9.09561 8.0166 10.0361 8.0166C10.9766 8.0166 11.5526 8.6496 11.5706 9.4731C11.5706 10.2801 10.9766 10.9326 9.99861 10.9326ZM22.1246 21.4686H19.2086V16.2681C19.2086 15.0576 18.7856 14.2356 17.7311 14.2356C16.9256 14.2356 16.4471 14.7921 16.2356 15.3276C16.1576 15.5181 16.1381 15.7881 16.1381 16.0566V21.4671H13.2206V15.0771C13.2206 13.9056 13.1831 12.9261 13.1441 12.0831H15.6776L15.8111 13.3866H15.8696C16.2536 12.7746 17.1941 11.8716 18.7676 11.8716C20.6861 11.8716 22.1246 13.1571 22.1246 15.9201V21.4686Z" fill="#00071C"/>
</svg>
