<svg width="27" height="26" viewBox="0 0 27 26" fill="none" xmlns="http://www.w3.org/2000/svg">
<g clip-path="url(#clip0_1992_7708)">
<path d="M22.167 4.3335C22.7136 4.33332 23.2401 4.53977 23.6409 4.91145C24.0417 5.28313 24.2872 5.79258 24.3282 6.33766L24.3337 6.50016V19.5002C24.3338 20.0468 24.1274 20.5733 23.7557 20.9741C23.384 21.3749 22.8746 21.6204 22.3295 21.6614L22.167 21.6668H4.83366C4.28703 21.667 3.76055 21.4606 3.35973 21.0889C2.95892 20.7172 2.71341 20.2077 2.67241 19.6627L2.66699 19.5002V6.50016C2.66682 5.95354 2.87327 5.42705 3.24495 5.02624C3.61663 4.62542 4.12607 4.37991 4.67116 4.33891L4.83366 4.3335H22.167ZM22.167 8.032L14.6487 15.5503C14.344 15.8546 13.931 16.0256 13.5003 16.0256C13.0697 16.0256 12.6567 15.8546 12.352 15.5503L4.83366 8.032V19.5002H22.167V8.032ZM20.6352 6.50016H6.36549L13.5003 13.635L20.6352 6.50016Z" fill="#898989"/>
</g>
<defs>
<clipPath id="clip0_1992_7708">
<rect width="26" height="26" fill="white" transform="translate(0.5)"/>
</clipPath>
</defs>
</svg>
