<svg width="20" height="20" viewBox="0 0 20 20" fill="none" xmlns="http://www.w3.org/2000/svg">
<g clip-path="url(#clip0_143_3212)">
<path d="M16.6667 3.3335C17.0872 3.33336 17.4922 3.49217 17.8005 3.77808C18.1088 4.06399 18.2977 4.45587 18.3292 4.87516L18.3334 5.00016V15.0002C18.3335 15.4206 18.1747 15.8256 17.8888 16.134C17.6029 16.4423 17.211 16.6311 16.7917 16.6627L16.6667 16.6668H3.33335C2.91287 16.667 2.50788 16.5082 2.19956 16.2222C1.89125 15.9363 1.70239 15.5445 1.67085 15.1252L1.66669 15.0002V5.00016C1.66655 4.57968 1.82536 4.17469 2.11127 3.86637C2.39718 3.55806 2.78906 3.3692 3.20835 3.33766L3.33335 3.3335H16.6667ZM16.6667 6.1785L10.8834 11.9618C10.649 12.1959 10.3313 12.3274 10 12.3274C9.66877 12.3274 9.35106 12.1959 9.11669 11.9618L3.33335 6.1785V15.0002H16.6667V6.1785ZM15.4884 5.00016H4.51169L10 10.4885L15.4884 5.00016Z" fill="white"/>
</g>
<defs>
<clipPath id="clip0_143_3212">
<rect width="20" height="20" fill="white"/>
</clipPath>
</defs>
</svg>
