<svg width="51" height="50" viewBox="0 0 51 50" fill="none" xmlns="http://www.w3.org/2000/svg">
<path d="M43.586 40.5079L37.4141 32.9493C40.3047 28.2032 41.0078 22.4415 39.3282 17.0509C39.1719 16.5431 38.625 16.2696 38.1172 16.4259C37.6094 16.5821 37.3164 17.129 37.4922 17.6368C39.0742 22.6759 38.3321 28.0665 35.4414 32.461L35.3828 32.5391C35.1875 32.8907 35.2071 33.3204 35.461 33.6329L42.0821 41.7188C42.0821 41.7188 42.1797 41.836 42.1992 41.836C42.7461 42.461 42.7461 43.3399 42.2188 43.9845C42.1993 44.004 42.1992 44.0235 42.1797 44.0235L42.043 44.1602C41.418 44.6876 40.5 44.6876 39.8555 44.1212C39.8164 44.0821 39.7969 44.0626 39.7578 44.0235L31.6719 37.422C31.3399 37.1485 30.8711 37.129 30.5196 37.3634L30.4414 37.422C23.625 41.8751 14.5039 40.9766 8.68363 35.2735C8.64456 35.2149 8.62503 35.1563 8.58597 35.1173C1.7891 28.3595 1.78909 17.3243 8.56644 10.547C15.3438 3.76962 26.3789 3.76962 33.1563 10.547C33.1953 10.586 33.2539 10.6251 33.3125 10.6446C33.3321 10.6641 33.3711 10.7032 33.3907 10.7227C33.7227 11.1329 34.3477 11.1915 34.7578 10.8399C35.168 10.5079 35.2266 9.8829 34.875 9.47274C34.7969 9.37509 34.6797 9.2579 34.5625 9.14071C27.043 1.64071 14.7969 1.58212 7.21878 9.08212C7.19925 9.10165 7.16019 9.12118 7.14066 9.16024C4.01566 12.2852 2.06253 16.4454 1.61331 20.8399C1.418 22.754 1.51566 24.6681 1.86722 26.5235C2.60941 30.3321 4.44534 33.7891 7.19925 36.5431C13.5078 42.8321 23.4102 43.9845 30.9883 39.3751L38.4883 45.5079C38.5274 45.547 38.586 45.6055 38.625 45.6446C39.3086 46.2305 40.1289 46.504 40.9493 46.504C41.7891 46.504 42.6289 46.211 43.3125 45.6251L43.6446 45.3126C43.7032 45.254 43.7422 45.1954 43.7813 45.1173C44.8164 43.7696 44.7774 41.8946 43.6641 40.586C43.6446 40.5665 43.6055 40.5274 43.586 40.5079Z" fill="white"/>
<path d="M49.2892 4.08211C49.0939 3.80867 48.7619 3.65242 48.4103 3.69149L42.1408 4.35555C41.7892 4.39461 41.4962 4.60946 41.3595 4.92196C41.2228 5.23446 41.2619 5.60555 41.4572 5.87899L42.8439 7.77352L20.8126 23.6524C20.5783 23.8087 20.4415 24.0821 20.422 24.3555L19.8361 31.8751L10.3048 22.5587C10.1095 22.3634 9.83607 22.2657 9.56263 22.2852L6.76967 22.4806C6.24232 22.5196 5.83217 22.9688 5.87123 23.5157C5.91029 24.0431 6.37904 24.4532 6.90638 24.4141L9.26967 24.2579L19.9728 34.7071C20.1486 34.8829 20.4025 34.9806 20.6564 34.9806C20.7736 34.9806 20.8908 34.961 20.9884 34.922C21.34 34.7852 21.5744 34.4727 21.6134 34.1016L22.3361 24.9806L44.0353 9.37508L45.2267 11.0157C45.4025 11.2696 45.6954 11.4063 46.0079 11.4063C46.047 11.4063 46.0861 11.4063 46.1056 11.4063C46.4572 11.3673 46.7501 11.1524 46.8869 10.8399L49.4259 5.07821C49.5431 4.72664 49.504 4.37508 49.2892 4.08211ZM45.7736 8.49617L44.0353 6.11336L46.965 5.80086L45.7736 8.49617Z" fill="white"/>
</svg>
