<svg width="69" height="69" viewBox="0 0 69 69" fill="none" xmlns="http://www.w3.org/2000/svg">
<g clip-path="url(#clip0_143_3107)">
<path d="M54.5788 39.505C53.7629 44.7221 47.2589 50.3097 42.1628 50.4416C41.8073 50.4426 41.452 50.562 41.2156 50.7997C40.9789 50.9188 40.7421 51.038 40.6246 51.3938C38.8555 54.7171 39.8105 57.3221 42.7792 59.4476C46.2228 61.9275 51.6682 59.4242 54.3882 57.1651C61.2474 51.4581 68.2142 41.6026 67.834 32.2403C69.0027 25.9554 68.7478 19.2005 66.9554 13.6347C65.7608 10.0822 62.319 8.31348 58.7628 8.0858C55.2065 7.85793 47.8555 6.8108 44.661 8.95241C41.4666 11.0944 41.2405 15.2432 40.8943 18.7996C40.549 22.7117 39.5017 30.063 42.8284 33.1358C46.1548 36.09 55.628 32.865 54.5788 39.505Z" fill="#9DF49B"/>
<path d="M15.467 39.608C14.6511 44.8251 8.14732 50.4127 3.05106 50.5447C2.6955 50.5456 2.34025 50.665 2.10384 50.9027C1.86691 51.0219 1.63038 51.141 1.5126 51.4969C-0.256466 54.8201 0.698565 57.4251 3.6672 59.5506C7.11085 62.0305 12.5562 59.5272 15.2765 57.2682C22.1357 51.5611 29.1025 41.7055 28.7222 32.3433C29.8909 26.0584 29.6361 19.3035 27.8438 13.7378C26.6492 10.1853 23.2074 8.41651 19.651 8.18883C16.0948 7.96096 8.74368 6.91383 5.54925 9.05543C2.35501 11.1974 2.1287 15.3463 1.78251 18.9026C1.43724 22.8147 0.389916 30.166 3.71661 33.2388C7.04298 36.1931 16.6347 32.9677 15.467 39.608Z" fill="#9DF49B"/>
</g>
<defs>
<clipPath id="clip0_143_3107">
<rect x="68.6606" y="68" width="68" height="68" rx="10" transform="rotate(179.849 68.6606 68)" fill="white"/>
</clipPath>
</defs>
</svg>
