<svg width="69" height="54" viewBox="0 0 69 54" fill="none" xmlns="http://www.w3.org/2000/svg">
<path d="M54.5788 32.505C53.7629 37.7221 47.2589 43.3097 42.1628 43.4416C41.8073 43.4426 41.452 43.562 41.2156 43.7997C40.9789 43.9188 40.7421 44.038 40.6246 44.3938C38.8555 47.7171 39.8105 50.3221 42.7792 52.4476C46.2228 54.9275 51.6682 52.4242 54.3882 50.1651C61.2474 44.4581 68.2142 34.6026 67.834 25.2403C69.0027 18.9554 68.7478 12.2005 66.9554 6.63472C65.7608 3.08223 62.319 1.31348 58.7628 1.0858C55.2065 0.857934 47.8555 -0.189198 44.661 1.95241C41.4666 4.0944 41.2405 8.24323 40.8943 11.7996C40.549 15.7117 39.5017 23.063 42.8284 26.1358C46.1548 29.09 55.628 25.865 54.5788 32.505Z" fill="#FF7219"/>
<path d="M15.467 32.608C14.6511 37.8251 8.14732 43.4127 3.05106 43.5447C2.6955 43.5456 2.34025 43.665 2.10384 43.9027C1.86691 44.0219 1.63038 44.141 1.5126 44.4969C-0.256466 47.8201 0.698565 50.4251 3.6672 52.5506C7.11085 55.0305 12.5562 52.5272 15.2765 50.2682C22.1357 44.5611 29.1025 34.7055 28.7222 25.3433C29.8909 19.0584 29.6361 12.3035 27.8438 6.73775C26.6492 3.18526 23.2074 1.41651 19.651 1.18883C16.0948 0.960961 8.74368 -0.0861702 5.54925 2.05543C2.35501 4.19742 2.1287 8.34626 1.78251 11.9026C1.43724 15.8147 0.389916 23.166 3.71661 26.2388C7.04298 29.1931 16.6347 25.9677 15.467 32.608Z" fill="#FF7219"/>
</svg>
