<svg width="40" height="40" viewBox="0 0 40 40" fill="none" xmlns="http://www.w3.org/2000/svg">
<path d="M17.5 13.3333C16.8434 13.3333 16.1933 13.4626 15.5866 13.7139C14.98 13.9652 14.4288 14.3335 13.9645 14.7978C13.5002 15.2621 13.1319 15.8133 12.8806 16.4199C12.6294 17.0265 12.5 17.6767 12.5 18.3333C12.5 18.9899 12.6294 19.6401 12.8806 20.2467C13.1319 20.8534 13.5002 21.4046 13.9645 21.8688C14.4288 22.3331 14.98 22.7014 15.5866 22.9527C16.1933 23.204 16.8434 23.3333 17.5 23.3333C18.8261 23.3333 20.0979 22.8065 21.0356 21.8688C21.9733 20.9312 22.5 19.6594 22.5 18.3333C22.5 17.0072 21.9733 15.7355 21.0356 14.7978C20.0979 13.8601 18.8261 13.3333 17.5 13.3333ZM15 18.3333C15 17.6703 15.2634 17.0344 15.7323 16.5655C16.2011 16.0967 16.837 15.8333 17.5 15.8333C18.1631 15.8333 18.799 16.0967 19.2678 16.5655C19.7366 17.0344 20 17.6703 20 18.3333C20 18.9964 19.7366 19.6322 19.2678 20.1011C18.799 20.5699 18.1631 20.8333 17.5 20.8333C16.837 20.8333 16.2011 20.5699 15.7323 20.1011C15.2634 19.6322 15 18.9964 15 18.3333ZM3.33337 12.0833C3.33337 11.0888 3.72846 10.1349 4.43172 9.43166C5.13498 8.7284 6.08881 8.33331 7.08337 8.33331H27.9167C28.4092 8.33331 28.8968 8.43031 29.3518 8.61876C29.8067 8.80722 30.2201 9.08344 30.5684 9.43166C30.9166 9.77988 31.1928 10.1933 31.3813 10.6483C31.5697 11.1032 31.6667 11.5909 31.6667 12.0833V24.5833C31.6667 25.0758 31.5697 25.5634 31.3813 26.0184C31.1928 26.4733 30.9166 26.8867 30.5684 27.235C30.2201 27.5832 29.8067 27.8594 29.3518 28.0479C28.8968 28.2363 28.4092 28.3333 27.9167 28.3333H7.08337C6.08881 28.3333 5.13498 27.9382 4.43172 27.235C3.72846 26.5317 3.33337 25.5779 3.33337 24.5833V12.0833ZM7.08337 10.8333C6.75185 10.8333 6.43391 10.965 6.19949 11.1994C5.96507 11.4338 5.83337 11.7518 5.83337 12.0833V13.3333H7.08337C7.41489 13.3333 7.73284 13.2016 7.96726 12.9672C8.20168 12.7328 8.33337 12.4148 8.33337 12.0833V10.8333H7.08337ZM5.83337 20.8333H7.08337C8.07794 20.8333 9.03176 21.2284 9.73502 21.9317C10.4383 22.6349 10.8334 23.5888 10.8334 24.5833V25.8333H24.1667V24.5833C24.1667 23.5888 24.5618 22.6349 25.2651 21.9317C25.9683 21.2284 26.9221 20.8333 27.9167 20.8333H29.1667V15.8333H27.9167C26.9221 15.8333 25.9683 15.4382 25.2651 14.735C24.5618 14.0317 24.1667 13.0779 24.1667 12.0833V10.8333H10.8334V12.0833C10.8334 12.5758 10.7364 13.0634 10.5479 13.5184C10.3595 13.9733 10.0832 14.3867 9.73502 14.735C9.3868 15.0832 8.97341 15.3594 8.51844 15.5479C8.06347 15.7363 7.57583 15.8333 7.08337 15.8333H5.83337V20.8333ZM29.1667 13.3333V12.0833C29.1667 11.7518 29.035 11.4338 28.8006 11.1994C28.5662 10.965 28.2482 10.8333 27.9167 10.8333H26.6667V12.0833C26.6667 12.7733 27.2267 13.3333 27.9167 13.3333H29.1667ZM29.1667 23.3333H27.9167C27.5852 23.3333 27.2672 23.465 27.0328 23.6994C26.7984 23.9339 26.6667 24.2518 26.6667 24.5833V25.8333H27.9167C28.2482 25.8333 28.5662 25.7016 28.8006 25.4672C29.035 25.2328 29.1667 24.9148 29.1667 24.5833V23.3333ZM5.83337 24.5833C5.83337 25.2733 6.39337 25.8333 7.08337 25.8333H8.33337V24.5833C8.33337 24.2518 8.20168 23.9339 7.96726 23.6994C7.73284 23.465 7.41489 23.3333 7.08337 23.3333H5.83337V24.5833ZM7.33504 30.8333C7.77388 31.5937 8.40529 32.2252 9.16571 32.664C9.92612 33.1029 10.7887 33.3338 11.6667 33.3333H28.75C29.7897 33.3333 30.8191 33.1285 31.7796 32.7307C32.7401 32.3328 33.6128 31.7497 34.348 31.0146C35.0831 30.2794 35.6662 29.4067 36.0641 28.4462C36.4619 27.4857 36.6667 26.4563 36.6667 25.4166V16.6666C36.667 15.7887 36.4361 14.9262 35.9972 14.1658C35.5584 13.4054 34.927 12.774 34.1667 12.335V25.4166C34.1667 26.8532 33.596 28.231 32.5802 29.2468C31.5644 30.2626 30.1866 30.8333 28.75 30.8333H7.33504Z" fill="#F6F6F6"/>
</svg>
