<svg width="32" height="32" viewBox="0 0 32 32" fill="none" xmlns="http://www.w3.org/2000/svg">
<path d="M28.1953 23.3398C27.2176 22.3613 26.0751 21.5626 24.8203 20.9804C26.5898 19.5468 27.7187 17.3593 27.7187 14.9062C27.7187 10.5781 24.1094 7.02728 19.7812 7.09369C15.5195 7.1601 12.0859 10.6328 12.0859 14.9062C12.0859 17.3593 13.2187 19.5468 14.9844 20.9804C13.7293 21.5622 12.5868 22.3609 11.6094 23.3398C9.47654 25.4765 8.2656 28.2968 8.18748 31.3046C8.18643 31.3463 8.19375 31.3878 8.20898 31.4266C8.22422 31.4654 8.24707 31.5008 8.2762 31.5307C8.30532 31.5605 8.34012 31.5842 8.37856 31.6004C8.41699 31.6166 8.45827 31.625 8.49998 31.6249H10.6875C10.8554 31.6249 10.9961 31.4921 11 31.3242C11.0742 29.0585 11.9922 26.9374 13.6054 25.3281C14.431 24.4981 15.4129 23.8402 16.4945 23.3923C17.576 22.9444 18.7356 22.7154 19.9062 22.7187C22.2851 22.7187 24.5234 23.6445 26.207 25.3281C27.8164 26.9374 28.7344 29.0585 28.8125 31.3242C28.8164 31.4921 28.957 31.6249 29.125 31.6249H31.3125C31.3542 31.625 31.3955 31.6166 31.4339 31.6004C31.4723 31.5842 31.5071 31.5605 31.5363 31.5307C31.5654 31.5008 31.5882 31.4654 31.6035 31.4266C31.6187 31.3878 31.626 31.3463 31.625 31.3046C31.5469 28.2968 30.3359 25.4765 28.1953 23.3398ZM19.9062 19.9062C18.5703 19.9062 17.3125 19.3867 16.3711 18.4413C15.8986 17.9726 15.5254 17.4135 15.2738 16.7974C15.0221 16.1813 14.8971 15.5209 14.9062 14.8554C14.9179 13.5742 15.4297 12.3359 16.3242 11.4179C17.2617 10.457 18.5156 9.92181 19.8554 9.90619C21.1797 9.89447 22.4648 10.4101 23.4101 11.3359C24.3789 12.2851 24.9101 13.5546 24.9101 14.9062C24.9101 16.2421 24.3906 17.496 23.4453 18.4413C22.9815 18.9073 22.4299 19.2767 21.8225 19.5282C21.215 19.7796 20.5637 19.9081 19.9062 19.9062ZM10.1211 15.9374C10.0859 15.5976 10.0664 15.2538 10.0664 14.9062C10.0664 14.2851 10.125 13.6796 10.2344 13.0898C10.2617 12.9492 10.1875 12.8046 10.0586 12.746C9.52732 12.5078 9.03904 12.1796 8.61716 11.7656C8.12005 11.2836 7.72888 10.7032 7.46859 10.0616C7.2083 9.41996 7.08462 8.73111 7.10544 8.039C7.1406 6.7851 7.64451 5.59369 8.52341 4.69525C9.48826 3.70697 10.7851 3.16791 12.164 3.18353C13.4101 3.19525 14.6133 3.67572 15.5234 4.52728C15.832 4.81635 16.0976 5.13666 16.3203 5.48041C16.3984 5.6015 16.5508 5.65228 16.6836 5.60541C17.3711 5.36713 18.0976 5.19916 18.8437 5.12103C19.0625 5.0976 19.1875 4.86322 19.0898 4.66791C17.8203 2.15619 15.2265 0.421815 12.2265 0.37494C7.89451 0.308534 4.28513 3.85931 4.28513 8.18353C4.28513 10.6367 5.41404 12.8242 7.18357 14.2578C5.94138 14.832 4.79685 15.6249 3.80466 16.6171C1.66404 18.7538 0.453101 21.5742 0.374976 24.5859C0.373933 24.6276 0.381246 24.669 0.396483 24.7079C0.41172 24.7467 0.434573 24.7821 0.463696 24.8119C0.492819 24.8418 0.527622 24.8655 0.566055 24.8817C0.604487 24.8979 0.645772 24.9062 0.687476 24.9062H2.87888C3.04685 24.9062 3.18748 24.7734 3.19138 24.6054C3.2656 22.3398 4.18357 20.2187 5.79685 18.6093C6.94529 17.4609 8.35154 16.664 9.88669 16.2773C10.039 16.2382 10.1406 16.0937 10.1211 15.9374Z" fill="#F6F6F6"/>
</svg>
