<svg width="27" height="26" viewBox="0 0 27 26" fill="none" xmlns="http://www.w3.org/2000/svg">
<path d="M7.67167 11.6892C9.23167 14.755 11.745 17.2575 14.8108 18.8283L17.1942 16.445C17.4867 16.1525 17.92 16.055 18.2992 16.185C19.5125 16.5858 20.8233 16.8025 22.1667 16.8025C22.7625 16.8025 23.25 17.29 23.25 17.8858V21.6667C23.25 22.2625 22.7625 22.75 22.1667 22.75C11.9942 22.75 3.75 14.5058 3.75 4.33333C3.75 3.7375 4.2375 3.25 4.83333 3.25H8.625C9.22083 3.25 9.70833 3.7375 9.70833 4.33333C9.70833 5.6875 9.925 6.9875 10.3258 8.20083C10.445 8.58 10.3583 9.0025 10.055 9.30583L7.67167 11.6892Z" fill="#898989"/>
</svg>
