<svg width="67" height="64" viewBox="0 0 67 64" fill="none" xmlns="http://www.w3.org/2000/svg">
<path d="M66.371 19.3744L62.8135 13.4549C62.3374 12.6699 61.559 12.0969 60.6468 11.8599C59.7346 11.6229 58.762 11.7411 57.9398 12.1889L43.9946 19.9561V4.42168C43.9946 2.53975 42.3937 1 40.4371 1H33.3222C31.3656 1 29.7648 2.53975 29.7648 4.42168V19.9561L15.784 12.1889C15.3824 11.9634 14.9385 11.8164 14.4778 11.7563C14.017 11.6962 13.5485 11.7241 13.099 11.8386C12.6495 11.953 12.2279 12.1517 11.8584 12.4232C11.4889 12.6947 11.1788 13.0336 10.9458 13.4207L7.38839 19.3402C6.3923 20.9826 6.96149 23.104 8.66907 24.0279L22.6499 31.7951L8.66907 39.5623C6.96149 40.5204 6.3923 42.6076 7.35281 44.25L10.9103 50.1695C11.9063 51.8119 14.0764 52.3593 15.784 51.4355L29.7648 43.6341V59.1685C29.7648 61.0504 31.3656 62.5902 33.3222 62.5902H40.4371C42.3937 62.5902 43.9946 61.0504 43.9946 59.1685V43.6341L57.9754 51.4013C59.6829 52.3593 61.853 51.7777 62.8491 50.1353L66.4065 44.2158C67.4026 42.5734 66.7979 40.4861 65.0903 39.5281L51.1095 31.7951L65.0903 24.0279C66.7979 23.104 67.367 20.9826 66.371 19.3744Z" fill="#FF7219"/>
<path d="M60.6208 19.3744L57.0634 13.4549C56.5873 12.6699 55.8088 12.0969 54.8966 11.8599C53.9844 11.6229 53.0119 11.7411 52.1897 12.1889L38.2445 19.9561V4.42168C38.2445 2.53975 36.6436 1 34.687 1H27.5721C25.6155 1 24.0146 2.53975 24.0146 4.42168V19.9561L10.0339 12.1889C9.6323 11.9634 9.18842 11.8164 8.72767 11.7563C8.26692 11.6962 7.79836 11.7241 7.34887 11.8386C6.89938 11.953 6.4778 12.1517 6.10831 12.4232C5.73882 12.6947 5.4287 13.0336 5.19572 13.4207L1.63826 19.3402C0.642177 20.9826 1.21137 23.104 2.91895 24.0279L16.8997 31.7951L2.91895 39.5623C1.21137 40.5204 0.642177 42.6076 1.60269 44.25L5.16014 50.1695C6.15623 51.8119 8.32628 52.3593 10.0339 51.4355L24.0146 43.6341V59.1685C24.0146 61.0504 25.6155 62.5902 27.5721 62.5902H34.687C36.6436 62.5902 38.2445 61.0504 38.2445 59.1685V43.6341L52.2252 51.4013C53.9328 52.3593 56.1029 51.7777 57.099 50.1353L60.6564 44.2158C61.6525 42.5734 61.0477 40.4861 59.3402 39.5281L45.3594 31.7951L59.3402 24.0279C61.0477 23.104 61.6169 20.9826 60.6208 19.3744Z" stroke="#00071C"/>
</svg>
